<?xml version="1.0" standalone="no"?>
<!DOCTYPE svg PUBLIC "-//W3C//DTD SVG 20010904//EN"
 "http://www.w3.org/TR/2001/REC-SVG-20010904/DTD/svg10.dtd">
<svg version="1.0" xmlns="http://www.w3.org/2000/svg"
 width="700.000000pt" height="700.000000pt" viewBox="0 0 700.000000 700.000000"
 preserveAspectRatio="xMidYMid meet">
<metadata>
Created by potrace 1.14, written by Peter Selinger 2001-2017
</metadata>
<g transform="translate(0.000000,700.000000) scale(0.100000,-0.100000)"
fill="#000000" stroke="none">
<path d="M0 3500 l0 -3500 3500 0 3500 0 0 3500 0 3500 -3500 0 -3500 0 0
-3500z m3146 1729 c26 -12 53 -36 66 -57 l23 -37 0 -1635 0 -1635 -23 -37
c-13 -21 -40 -45 -66 -57 -41 -21 -56 -21 -652 -21 l-610 0 -44 23 c-33 16
-51 34 -67 67 l-23 44 0 1616 0 1616 23 44 c16 33 34 51 67 68 l44 22 610 0
c596 0 611 0 652 -21z m1989 -1308 c47 -22 89 -64 104 -104 8 -19 11 -330 11
-974 0 -944 0 -947 -21 -991 -13 -26 -38 -54 -62 -70 l-41 -27 -770 -3 c-424
-2 -786 0 -804 3 -42 8 -100 59 -123 110 -18 38 -19 92 -19 970 0 629 4 942
11 968 14 51 64 104 114 122 33 12 171 14 800 14 719 1 762 0 800 -18z"/>
</g>
</svg>
