<?xml version="1.0" standalone="no"?>
<!DOCTYPE svg PUBLIC "-//W3C//DTD SVG 20010904//EN"
 "http://www.w3.org/TR/2001/REC-SVG-20010904/DTD/svg10.dtd">
<svg version="1.0" xmlns="http://www.w3.org/2000/svg"
 width="260.000000pt" height="260.000000pt" viewBox="0 0 260.000000 260.000000"
 preserveAspectRatio="xMidYMid meet">
<metadata>
Created by potrace 1.14, written by Peter Selinger 2001-2017
</metadata>
<g transform="translate(0.000000,260.000000) scale(0.100000,-0.100000)"
fill="#000000" stroke="none">
<path d="M59 2577 c-18 -12 -39 -34 -46 -47 -10 -20 -13 -286 -13 -1231 l0
-1206 23 -34 c12 -18 34 -39 47 -46 19 -10 137 -13 485 -13 441 0 461 1 492
20 18 11 38 34 45 51 10 24 13 287 13 1237 -1 1174 -1 1208 -20 1236 -37 55
-44 56 -538 56 l-454 0 -34 -23z"/>
<path d="M1332 1618 c-37 -10 -80 -53 -90 -90 -4 -16 -7 -342 -7 -726 0 -681
1 -698 20 -732 42 -72 23 -70 664 -70 559 0 574 0 610 20 75 43 71 -4 68 800
-2 711 -2 719 -23 747 -43 58 -28 57 -646 58 -312 0 -580 -3 -596 -7z"/>
</g>
</svg>
